# xmcd
# Copyright (C) 1995-1998 Ti Kan
#
# Track frame offsets:
#       150
#       17393
#       33350
#       53968
#       70076
#       88045
#       104301
#       118468
#       133913
#       150460
#       166642
#       186009
#       204657
#       224290
#       242015
#       259741
#       277501
#       293452
#
# Disc length: 4104 seconds
#
# Revision: 17
# Processed by: cddbd v1.5.1PL0 Copyright (c) Steve Scherf et al.
# Submitted via: CD-Transfer v1.0
#
DISCID=f3100612
DTITLE=La Mancha De Rolando - Euroexpress 581
DYEAR=04
DGENRE=
TTITLE0=Todavia
TTITLE1=Ese Problema
TTITLE2=Mai De Amores
TTITLE3=Vestido Azul
TTITLE4=Donde Estabes
TTITLE5=Dejame Entrar
TTITLE6=Algo Personal
TTITLE7=Toda Mi Vida
TTITLE8=Boca A Boca
TTITLE9=La Cancion Del Valero
TTITLE10=Ven A Bailar (Radio Edit)
TTITLE11=Come Vai
TTITLE12=Precisamento Ahora
TTITLE13=Loko
TTITLE14=Si La Vieras Bailar
TTITLE15=Que Vas A Sar
TTITLE16=Adicta
TTITLE17=Buscar
EXTD=
EXTT0=
EXTT1=
EXTT2=
EXTT3=
EXTT4=
EXTT5=
EXTT6=
EXTT7=
EXTT8=
EXTT9=
EXTT10=
EXTT11=
EXTT12=
EXTT13=
EXTT14=
EXTT15=
EXTT16=
EXTT17=
PLAYORDER=
